<?xml version="1.0" encoding="utf-8"?>
<!-- Generator: Adobe Illustrator 18.1.1, SVG Export Plug-In . SVG Version: 6.00 Build 0)  -->
<svg version="1.1" id="Capa_1" xmlns="http://www.w3.org/2000/svg" xmlns:xlink="http://www.w3.org/1999/xlink" x="0px" y="0px"
	 viewBox="0 0 589.6 652" enable-background="new 0 0 589.6 652" xml:space="preserve">
<g>
	<path fill="#868686" d="M261.6,337.1c21.5,13.1,46.7,17.6,66.9-0.3c16.1-14.2,18.7-38.2,11.2-57.2
		c-23.1-58.4-122.9-22.5-136.4,25.8c-14.8,52.9,36,110.4,89.1,106.8c33.7-2.3,62.5-27.8,80-55.1c26.6-41.5,9.9-88-18.1-123.5
		c-8.8-11.1-25.1,3.6-16.3,14.7c22.9,29.1,35.2,62.5,16.1,96.7c-12,21.3-34.8,39.9-58.9,44.9c-37.3,7.6-70.7-30.7-72.2-65.3
		c-1.7-40.1,62.2-70.1,91.9-42.7c9.5,8.8,8.7,23.5,2.7,33.9c-9.9,17.1-30.2,11.4-43.9,3C261.6,311.4,249.5,329.8,261.6,337.1
		L261.6,337.1z"/>
</g>
</svg>
